<svg xmlns="http://www.w3.org/2000/svg" viewBox="0 0 280.36 59.87"><defs><style>.cls-1,.cls-2{fill:#fff;}.cls-2{font-size:37.69px;font-family:ComicSansMS, Comic Sans MS;letter-spacing:0.01em;}</style></defs><title>WZRightWhite</title><g id="图层_2" data-name="图层 2"><g id="图层_1-2" data-name="图层 1"><path class="cls-1" d="M6.39,39.22a11,11,0,0,1,3.8.15,26.81,26.81,0,0,1,7.61,3.41A15.22,15.22,0,0,1,16,29.8c1.52-4.26,5.65-7.63,10.17-7.67.67,0,1.47.14,1.73.76a1.32,1.32,0,0,1-.6,1.49,5.26,5.26,0,0,1-1.64.58A9.69,9.69,0,0,0,20.9,40.79,11.66,11.66,0,0,0,26.09,37c2.78-3.6,3.36-8.69,6.66-11.81a9.24,9.24,0,0,1,5.83-2.43,9.91,9.91,0,0,1,6.06,1.77,10.81,10.81,0,0,1,4.79,8.54,18.49,18.49,0,0,1-2.7,10.07c2.46-1.66,5-3.35,7.86-4.07s6.22-.3,8.29,1.82a7.71,7.71,0,0,1,1.85,6.68,12.28,12.28,0,0,1-3.38,6.22,19.18,19.18,0,0,1-11.89,5.64,23.48,23.48,0,0,1-13-2.6,3.81,3.81,0,0,0-1.88-.61,3.73,3.73,0,0,0-1.49.54A28.8,28.8,0,0,1,9.35,57.8C6,56.43,2.77,54.27,1.08,51.07S-.39,43.46,2.31,41A7.6,7.6,0,0,1,6.39,39.22Zm39.93-5.59a8.31,8.31,0,0,0-2.78-6c-3.08-2.82-7.63-2.5-9.92,1.35a44,44,0,0,0-2.15,5,18.17,18.17,0,0,1-5.59,7.54,14.6,14.6,0,0,1-3.16,1.81c-.39.17-.45.36-.17.68s.52.63.79.92a32.3,32.3,0,0,0,9.59,6.91c1.89.9,1.37,1,3.11-.38a32.22,32.22,0,0,0,8.55-11.06A14.83,14.83,0,0,0,46.32,33.63Zm-27,23a27.14,27.14,0,0,0,10.53-1.88c.14-.06.35-.07.37-.24s-.2-.26-.34-.34a36.52,36.52,0,0,1-3.19-1.88c-2.47-1.64-4.9-3.35-7.45-4.87-1.95-1.15-3.89-2.3-5.92-3.29a19.88,19.88,0,0,0-4.79-1.88A4.43,4.43,0,0,0,3.27,47.9a9.38,9.38,0,0,0,3.87,5A21.38,21.38,0,0,0,19.32,56.65Zm28.91-.31a16,16,0,0,0,8.57-2.91,11.4,11.4,0,0,0,4.69-5.94,4.27,4.27,0,0,0-4.3-5.68,11.09,11.09,0,0,0-3.82,1.09c-5.78,2.56-10.55,6.53-15.08,10.84-.33.31-.17.44.14.56l1.46.55A22.63,22.63,0,0,0,48.23,56.34Z"/><path class="cls-1" d="M39.23,15.92a10.08,10.08,0,0,1-2,2.64,8.05,8.05,0,0,1-7.12,2.14,8.14,8.14,0,0,1-5.23-4.18,12.3,12.3,0,0,1-1.23-6.71A12.41,12.41,0,0,1,25.8,3.5,8.23,8.23,0,0,1,32.09,0a8,8,0,0,1,6.54,3.17l.22.3a11.51,11.51,0,0,1,1.72,8.26A12.79,12.79,0,0,1,39.23,15.92Zm-12.69-5.2a9,9,0,0,0,2,5.62,4.08,4.08,0,0,0,6.15.36,8.59,8.59,0,0,0,2-2.78c1.42-3.1,1.38-6.12-.72-8.92a4.55,4.55,0,0,0-7.12-.55A8.75,8.75,0,0,0,26.54,10.72Z"/><polygon class="cls-1" points="66.68 16.45 66.69 16.49 66.66 16.48 66.68 16.45"/><text class="cls-2" transform="translate(79 46.64)">WeeklyZen</text></g></g></svg>